<?xml version="1.0" encoding="utf-8" ?>
<svg baseProfile="tiny" height="32px" version="1.2" width="32px" xmlns="http://www.w3.org/2000/svg" xmlns:ev="http://www.w3.org/2001/xml-events" xmlns:xlink="http://www.w3.org/1999/xlink"><defs /><rect fill="black" height="1" width="1" x="12" y="6" /><rect fill="black" height="1" width="1" x="13" y="6" /><rect fill="black" height="1" width="1" x="14" y="6" /><rect fill="black" height="1" width="1" x="15" y="6" /><rect fill="black" height="1" width="1" x="16" y="6" /><rect fill="black" height="1" width="1" x="17" y="6" /><rect fill="black" height="1" width="1" x="12" y="7" /><rect fill="black" height="1" width="1" x="17" y="7" /><rect fill="black" height="1" width="1" x="18" y="7" /><rect fill="black" height="1" width="1" x="19" y="7" /><rect fill="black" height="1" width="1" x="11" y="8" /><rect fill="black" height="1" width="1" x="12" y="8" /><rect fill="black" height="1" width="1" x="19" y="8" /><rect fill="black" height="1" width="1" x="20" y="8" /><rect fill="black" height="1" width="1" x="11" y="9" /><rect fill="black" height="1" width="1" x="12" y="9" /><rect fill="black" height="1" width="1" x="19" y="9" /><rect fill="black" height="1" width="1" x="20" y="9" /><rect fill="black" height="1" width="1" x="8" y="10" /><rect fill="black" height="1" width="1" x="9" y="10" /><rect fill="black" height="1" width="1" x="10" y="10" /><rect fill="black" height="1" width="1" x="11" y="10" /><rect fill="black" height="1" width="1" x="12" y="10" /><rect fill="black" height="1" width="1" x="13" y="10" /><rect fill="black" height="1" width="1" x="14" y="10" /><rect fill="black" height="1" width="1" x="15" y="10" /><rect fill="black" height="1" width="1" x="16" y="10" /><rect fill="black" height="1" width="1" x="17" y="10" /><rect fill="black" height="1" width="1" x="18" y="10" /><rect fill="black" height="1" width="1" x="19" y="10" /><rect fill="black" height="1" width="1" x="20" y="10" /><rect fill="black" height="1" width="1" x="21" y="10" /><rect fill="black" height="1" width="1" x="22" y="10" /><rect fill="black" height="1" width="1" x="23" y="10" /><rect fill="black" height="1" width="1" x="24" y="11" /><rect fill="black" height="1" width="1" x="7" y="12" /><rect fill="black" height="1" width="1" x="10" y="12" /><rect fill="black" height="1" width="1" x="22" y="12" /><rect fill="black" height="1" width="1" x="24" y="12" /><rect fill="black" height="1" width="1" x="7" y="13" /><rect fill="black" height="1" width="1" x="24" y="13" /><rect fill="black" height="1" width="1" x="7" y="14" /><rect fill="black" height="1" width="1" x="8" y="14" /><rect fill="black" height="1" width="1" x="9" y="14" /><rect fill="black" height="1" width="1" x="10" y="14" /><rect fill="black" height="1" width="1" x="11" y="14" /><rect fill="black" height="1" width="1" x="12" y="14" /><rect fill="black" height="1" width="1" x="13" y="14" /><rect fill="black" height="1" width="1" x="14" y="14" /><rect fill="black" height="1" width="1" x="15" y="14" /><rect fill="black" height="1" width="1" x="16" y="14" /><rect fill="black" height="1" width="1" x="17" y="14" /><rect fill="black" height="1" width="1" x="18" y="14" /><rect fill="black" height="1" width="1" x="19" y="14" /><rect fill="black" height="1" width="1" x="20" y="14" /><rect fill="black" height="1" width="1" x="21" y="14" /><rect fill="black" height="1" width="1" x="22" y="14" /><rect fill="black" height="1" width="1" x="23" y="14" /><rect fill="black" height="1" width="1" x="24" y="14" /><rect fill="black" height="1" width="1" x="7" y="15" /><rect fill="black" height="1" width="1" x="11" y="15" /><rect fill="black" height="1" width="1" x="12" y="15" /><rect fill="black" height="1" width="1" x="19" y="15" /><rect fill="black" height="1" width="1" x="20" y="15" /><rect fill="black" height="1" width="1" x="24" y="15" /><rect fill="black" height="1" width="1" x="8" y="16" /><rect fill="black" height="1" width="1" x="11" y="16" /><rect fill="black" height="1" width="1" x="12" y="16" /><rect fill="black" height="1" width="1" x="19" y="16" /><rect fill="black" height="1" width="1" x="20" y="16" /><rect fill="black" height="1" width="1" x="23" y="16" /><rect fill="black" height="1" width="1" x="8" y="17" /><rect fill="black" height="1" width="1" x="9" y="17" /><rect fill="black" height="1" width="1" x="10" y="17" /><rect fill="black" height="1" width="1" x="11" y="17" /><rect fill="black" height="1" width="1" x="12" y="17" /><rect fill="black" height="1" width="1" x="20" y="17" /><rect fill="black" height="1" width="1" x="21" y="17" /><rect fill="black" height="1" width="1" x="22" y="17" /><rect fill="black" height="1" width="1" x="23" y="17" /><rect fill="black" height="1" width="1" x="11" y="19" /><rect fill="black" height="1" width="1" x="20" y="19" /><rect fill="black" height="1" width="1" x="11" y="20" /><rect fill="black" height="1" width="1" x="20" y="20" /><rect fill="black" height="1" width="1" x="11" y="21" /><rect fill="black" height="1" width="1" x="12" y="21" /><rect fill="black" height="1" width="1" x="13" y="21" /><rect fill="black" height="1" width="1" x="14" y="21" /><rect fill="black" height="1" width="1" x="15" y="21" /><rect fill="black" height="1" width="1" x="16" y="21" /><rect fill="black" height="1" width="1" x="17" y="21" /><rect fill="black" height="1" width="1" x="18" y="21" /><rect fill="black" height="1" width="1" x="19" y="21" /><rect fill="black" height="1" width="1" x="20" y="21" /></svg>